<?xml version="1.0" standalone="no"?>
<!DOCTYPE svg PUBLIC "-//W3C//DTD SVG 20010904//EN"
 "http://www.w3.org/TR/2001/REC-SVG-20010904/DTD/svg10.dtd">
<svg version="1.0" xmlns="http://www.w3.org/2000/svg"
 width="518.000000pt" height="518.000000pt" viewBox="0 0 518.000000 518.000000"
 preserveAspectRatio="xMidYMid meet">
<metadata>
Created by potrace 1.14, written by Peter Selinger 2001-2017
</metadata>
<g transform="translate(0.000000,518.000000) scale(0.100000,-0.100000)"
fill="#000000" stroke="none">
<path d="M2436 4733 c-2 -3 -19 -5 -38 -7 -18 -1 -39 -5 -45 -9 -8 -5 -13 -3
-13 3 0 7 -5 8 -12 3 -7 -4 -24 -9 -38 -9 -14 -1 -25 -3 -25 -4 0 -2 -22 -7
-75 -15 -25 -4 -49 -10 -55 -14 -5 -4 -19 -8 -30 -8 -27 -2 -49 -7 -55 -13 -3
-3 -44 -18 -92 -34 -48 -16 -89 -31 -90 -35 -2 -3 -38 -24 -80 -46 -43 -22
-78 -43 -78 -46 0 -3 -10 -10 -23 -16 -50 -23 -220 -190 -210 -206 3 -6 1 -7
-4 -4 -6 4 -30 -22 -54 -58 -23 -36 -47 -65 -53 -65 -5 0 -7 -3 -3 -6 3 -3 -5
-24 -19 -45 -13 -21 -24 -45 -24 -53 0 -8 -7 -16 -15 -20 -8 -3 -14 -9 -13
-13 2 -5 -4 -26 -14 -48 -18 -43 -31 -77 -32 -85 -1 -3 -5 -11 -9 -17 -8 -13
-18 -48 -19 -70 -1 -7 -5 -13 -10 -13 -5 0 -8 -6 -6 -12 1 -7 -3 -29 -10 -48
-6 -19 -13 -46 -16 -60 -3 -14 -8 -36 -11 -50 -3 -14 -9 -38 -12 -55 -3 -16
-7 -37 -8 -45 -2 -8 -4 -30 -4 -48 -1 -18 -4 -31 -8 -29 -5 3 -7 -15 -6 -39 0
-27 -3 -44 -10 -44 -7 0 -5 -5 3 -10 8 -5 10 -10 4 -10 -6 0 -11 -10 -10 -22
1 -13 -1 -40 -5 -60 -4 -25 -3 -38 5 -38 8 0 8 -2 0 -8 -13 -8 -12 7 -18 -225
-3 -103 -8 -192 -11 -197 -4 -6 -3 -10 2 -10 4 0 8 -10 9 -22 7 -150 10 -184
19 -190 6 -5 5 -8 -3 -8 -7 0 -10 -4 -7 -10 3 -5 7 -30 9 -55 1 -24 5 -48 9
-51 3 -4 2 -14 -3 -24 -5 -10 -6 -21 -2 -24 4 -4 7 -19 8 -34 3 -42 14 -153
21 -197 3 -22 6 -55 7 -72 0 -18 3 -33 7 -33 4 0 6 -11 4 -25 -1 -14 1 -28 5
-30 5 -3 7 -16 5 -30 -1 -14 1 -27 4 -30 4 -2 8 -20 9 -41 2 -20 6 -42 10 -48
3 -6 8 -20 10 -31 7 -37 8 -40 15 -52 5 -7 6 -13 3 -13 -3 0 4 -25 15 -55 11
-30 18 -59 14 -65 -3 -5 -2 -10 2 -10 7 0 33 -51 37 -72 0 -3 4 -10 9 -14 4
-4 7 -15 7 -25 0 -10 7 -25 16 -33 8 -9 13 -16 9 -16 -3 0 2 -12 12 -28 31
-46 43 -66 50 -82 3 -8 27 -42 52 -75 43 -57 63 -81 117 -139 14 -14 22 -26
18 -26 -4 0 4 -11 17 -24 39 -41 69 -75 69 -81 0 -2 14 -18 31 -35 18 -16 29
-30 26 -30 -3 0 10 -17 31 -38 20 -21 51 -54 67 -73 17 -19 41 -43 55 -52 14
-10 25 -20 25 -24 0 -4 12 -19 28 -34 15 -15 27 -25 27 -22 0 3 11 -5 24 -18
27 -27 37 -35 86 -69 19 -14 37 -27 40 -30 3 -3 28 -16 57 -30 28 -14 49 -29
46 -34 -4 -5 -1 -6 5 -2 6 4 22 1 34 -6 13 -7 28 -13 33 -14 6 0 23 -6 38 -12
16 -7 35 -12 43 -12 9 0 25 -5 36 -11 14 -7 18 -8 14 0 -4 6 3 5 17 -2 14 -7
73 -14 137 -16 91 -2 111 0 105 11 -6 10 -5 10 5 1 7 -6 23 -8 39 -4 14 4 33
7 41 6 8 -1 20 3 27 8 7 5 17 6 23 2 5 -3 10 -1 10 5 0 6 3 9 8 7 4 -3 18 0
32 6 14 5 34 12 45 14 10 2 23 9 27 16 4 6 8 8 8 4 0 -19 198 104 267 168 57
51 183 180 183 187 0 5 7 8 17 8 9 0 14 3 10 6 -5 6 3 18 60 83 40 46 60 69
103 122 19 24 47 56 63 71 15 16 27 31 27 35 0 3 16 23 35 45 20 21 41 50 47
64 6 13 15 24 20 24 4 0 8 7 8 15 0 8 5 15 11 15 5 0 7 5 4 10 -3 6 -3 10 2
10 13 0 113 206 113 234 0 7 3 16 7 20 7 7 14 31 16 59 1 9 4 17 8 17 6 0 23
58 34 116 2 11 4 19 5 19 1 0 3 11 6 25 2 14 7 32 10 40 3 8 8 31 10 50 4 39
10 83 18 117 2 12 8 53 11 90 4 37 9 79 10 93 2 14 4 44 4 68 1 29 5 41 12 36
8 -5 8 -1 0 14 -13 25 -14 35 -3 28 10 -6 9 24 -1 40 -3 6 -3 14 0 18 11 11
21 121 28 304 3 62 7 118 10 123 4 5 3 9 -2 9 -4 0 -8 37 -9 83 -2 130 -6 211
-12 222 -9 15 -9 45 -1 45 5 0 4 11 -1 25 -5 14 -7 32 -4 40 4 9 1 15 -7 15
-11 0 -11 3 1 10 10 6 11 10 3 10 -8 0 -11 9 -9 22 1 12 -1 38 -5 58 -5 19
-11 57 -14 85 -4 27 -9 52 -13 55 -4 3 -8 14 -8 25 -1 11 -4 29 -6 40 -3 11
-8 37 -13 58 -4 20 -11 40 -16 43 -5 3 -7 9 -4 14 7 11 -73 229 -91 250 -7 8
-13 20 -14 25 -1 19 -25 65 -33 65 -5 0 -5 5 -2 10 3 6 2 10 -3 10 -6 0 -13
11 -16 25 -4 14 -11 25 -16 25 -6 0 -10 7 -10 15 0 8 -4 15 -8 15 -5 0 -14 10
-20 23 -17 35 -182 217 -182 200 0 -4 -7 3 -16 15 -8 12 -22 22 -30 22 -8 0
-13 4 -9 9 3 5 -4 12 -15 16 -11 3 -20 11 -20 16 0 5 -3 8 -7 7 -5 -1 -34 14
-66 35 -31 20 -64 37 -72 37 -8 0 -15 5 -15 11 0 5 -4 8 -9 5 -5 -3 -14 1 -21
9 -7 8 -20 15 -29 15 -10 0 -36 9 -59 20 -22 11 -47 20 -54 20 -7 0 -26 7 -41
15 -18 9 -25 10 -20 2 4 -7 -5 -4 -20 6 -15 9 -27 16 -27 13 0 -2 -28 2 -62 9
-34 8 -66 11 -70 9 -4 -3 -8 -1 -8 3 0 5 -13 8 -30 7 -16 -1 -30 1 -30 5 0 9
-17 10 -242 15 -92 2 -169 1 -172 -1z"/>
</g>
</svg>
